<?xml version="1.0" encoding="utf-8"?>
<!-- Generator: Adobe Illustrator 24.1.0, SVG Export Plug-In . SVG Version: 6.00 Build 0)  -->
<svg version="1.1" id="Layer_1" xmlns="http://www.w3.org/2000/svg" xmlns:xlink="http://www.w3.org/1999/xlink" x="0px" y="0px"
	 viewBox="0 0 1080 1080" style="enable-background:new 0 0 1080 1080;" xml:space="preserve">
<style type="text/css">
	.st0{fill:#4C295F;}
	.st1{fill:none;stroke:#FFFC2E;stroke-width:1.9353;stroke-miterlimit:10;}
	.st2{fill:none;stroke:#50285D;stroke-width:1.2868;stroke-miterlimit:10;}
	.st3{fill:none;stroke:#FFFC2E;stroke-width:1.7418;stroke-miterlimit:10;}
	.st4{fill:none;stroke:#FFFC2E;stroke-width:1.47;stroke-miterlimit:10;}
	.st5{fill:none;stroke:#50285D;stroke-width:1.6458;stroke-miterlimit:10;}
	.st6{fill:#50285D;}
	.st7{fill:#53C98F;stroke:#FFFFFF;stroke-width:1.7008;stroke-miterlimit:10;}
	.st8{fill:#53C98F;}
	.st9{fill:#FFFFFF;}
	.st10{fill:#FFFFFF;stroke:#FFFFFF;stroke-miterlimit:10;}
</style>
<g>
	<path class="st0" d="M524.07,274.52c-22.06,45.55-15.91,97.44,11.57,135.92c22-12.91,40.55-32.23,52.5-56.91
		c22.06-45.55,15.91-97.44-11.57-135.92C554.57,230.52,536.02,249.85,524.07,274.52z"/>
	<path class="st0" d="M540.21,404.57c-1.32,2.73-2.57,5.49-3.74,8.25c66.74,0.82,131.15-36.16,162.16-100.2
		c1.32-2.73,2.57-5.49,3.74-8.25C635.64,303.55,571.22,340.53,540.21,404.57z"/>
	<path class="st0" d="M525.41,350.49c-26.11-75.14-89.64-126.57-162.46-140.79c-10.84,74.59,26.95,150.76,98.4,185.36
		c24.49,11.86,50.36,17.57,75.87,17.77C536.4,392.1,532.58,371.12,525.41,350.49z"/>
	<g>
		<g>
			<path class="st6" d="M347.12,493.02c-0.41,11.47,5.36,22.89,15.49,28.57c5.24,2.94,11.47,4.5,17.48,4.25
				c5.45-0.23,11.28-1.62,15.77-4.86c4.47-3.22,8.14-7.37,10.38-12.45c2.35-5.31,3.61-10.58,4.05-16.38
				c0.73-9.52-1.43-19.54-6.6-27.62c-10.86-16.98-31.69-27.04-51.62-27.04c-9.9,0-20.25,2.65-28.36,8.48
				c-7.73,5.55-13.75,12.99-17.53,21.74c-3.96,9.18-6,18.85-6.31,28.85c-0.29,9.11,0.87,18.5,3.54,27.21
				c6.16,20.13,21.16,37.64,40.34,46.47c10.18,4.69,21.2,7.38,32.46,7.04c10.27-0.31,20.22-2.93,29.32-7.69
				c13.85-7.24,24.86-19.42,32.84-32.68c2.18-3.62,4.14-7.38,5.86-11.24c1.98-4.44,3.8-8.94,5.14-13.61
				c1.8-6.29,2.83-12.84,3.29-19.36c1.29-18.44-3.13-37.18-11.12-53.75c-0.67-1.39-1.37-2.76-2.13-4.11
				c-2.4-4.29-8.65-6.09-12.86-3.37c-4.34,2.8-5.94,8.26-3.37,12.86c1.54,2.74,2.88,5.6,4.1,8.49c-0.32-0.75-0.63-1.5-0.95-2.24
				c3.56,8.45,6.03,17.36,7.25,26.45c-0.11-0.83-0.22-1.67-0.34-2.5c1.02,7.77,1.09,15.63,0.07,23.4c0.11-0.83,0.22-1.67,0.34-2.5
				c-0.98,7.2-2.89,14.22-5.7,20.92c0.32-0.75,0.63-1.5,0.95-2.24c-2.4,5.62-5.22,11.05-8.55,16.18c-1.42,2.19-2.92,4.32-4.51,6.39
				c0.49-0.63,0.98-1.27,1.47-1.9c-4.07,5.26-8.7,10.07-13.96,14.15c0.63-0.49,1.27-0.98,1.9-1.47c-4.15,3.19-8.66,5.88-13.48,7.94
				c0.75-0.32,1.5-0.63,2.24-0.95c-4.55,1.91-9.32,3.21-14.21,3.89c0.83-0.11,1.67-0.22,2.5-0.34c-5.24,0.7-10.53,0.69-15.77,0.01
				c0.83,0.11,1.67,0.22,2.5,0.34c-5.6-0.76-11.06-2.28-16.26-4.47c0.75,0.32,1.5,0.63,2.24,0.95c-5.28-2.26-10.24-5.18-14.79-8.68
				c0.63,0.49,1.27,0.98,1.9,1.47c-4.62-3.59-8.78-7.74-12.36-12.37c0.49,0.63,0.98,1.27,1.47,1.9c-3.41-4.46-6.26-9.3-8.46-14.47
				c0.32,0.75,0.63,1.5,0.95,2.24c-2.37-5.67-3.9-11.63-4.74-17.71c0.11,0.83,0.22,1.67,0.34,2.5c-0.93-6.93-0.97-13.97-0.04-20.9
				c-0.11,0.83-0.22,1.67-0.34,2.5c0.77-5.56,2.15-11.02,4.33-16.2c-0.32,0.75-0.63,1.5-0.95,2.24c1.61-3.77,3.62-7.35,6.11-10.62
				c-0.49,0.63-0.98,1.27-1.47,1.9c2.05-2.65,4.39-5.03,7.03-7.1c-0.63,0.49-1.27,0.98-1.9,1.47c2.57-1.97,5.36-3.6,8.34-4.86
				c-0.75,0.32-1.5,0.63-2.24,0.95c3.27-1.35,6.7-2.24,10.2-2.73c-0.83,0.11-1.67,0.22-2.5,0.34c4.32-0.56,8.68-0.51,12.99,0.06
				c-0.83-0.11-1.67-0.22-2.5-0.34c4.91,0.68,9.7,2.02,14.27,3.93c-0.75-0.32-1.5-0.63-2.24-0.95c4.39,1.87,8.54,4.25,12.32,7.17
				c-0.63-0.49-1.27-0.98-1.9-1.47c3.03,2.37,5.79,5.06,8.15,8.1c-0.49-0.63-0.98-1.27-1.47-1.9c1.88,2.46,3.46,5.11,4.67,7.96
				c-0.32-0.75-0.63-1.5-0.95-2.24c1.17,2.83,1.9,5.78,2.32,8.81c-0.11-0.83-0.22-1.67-0.34-2.5c0.47,3.67,0.47,7.39,0.01,11.06
				c0.11-0.83,0.22-1.67,0.34-2.5c-0.42,3.13-1.19,6.2-2.41,9.12c0.32-0.75,0.63-1.5,0.95-2.24c-0.84,1.95-1.87,3.78-3.16,5.47
				c0.49-0.63,0.98-1.27,1.47-1.9c-1.03,1.32-2.19,2.5-3.51,3.53c0.63-0.49,1.27-0.98,1.9-1.47c-1.19,0.9-2.46,1.65-3.83,2.25
				c0.75-0.32,1.5-0.63,2.24-0.95c-1.74,0.73-3.54,1.2-5.4,1.47c0.83-0.11,1.67-0.22,2.5-0.34c-2.2,0.29-4.4,0.28-6.59,0
				c0.83,0.11,1.67,0.22,2.5,0.34c-2.15-0.3-4.23-0.86-6.24-1.7c0.75,0.32,1.5,0.63,2.24,0.95c-1.71-0.75-3.31-1.67-4.8-2.8
				c0.63,0.49,1.27,0.98,1.9,1.47c-1.38-1.08-2.59-2.3-3.68-3.68c0.49,0.63,0.98,1.27,1.47,1.9c-1.11-1.48-2.02-3.05-2.74-4.75
				c0.32,0.75,0.63,1.5,0.95,2.24c-0.78-1.93-1.3-3.92-1.58-5.98c0.11,0.83,0.22,1.67,0.34,2.5c-0.18-1.43-0.26-2.86-0.21-4.3
				c0.17-4.92-4.45-9.62-9.4-9.4C351.27,483.86,347.3,487.75,347.12,493.02L347.12,493.02z"/>
		</g>
	</g>
	<g>
		<g>
			<path class="st6" d="M564.82,491.17c-7.79-8.36-19.69-12.24-30.84-9.34c-6.03,1.57-11.9,5.14-16.03,9.82
				c-1.94,2.2-3.75,4.61-5,7.28c-1.66,3.55-2.53,6.82-2.85,10.74c-0.5,6.1,1.49,12.33,4.27,17.68c2.61,5.02,6.39,9.67,10.64,13.41
				c4.51,3.97,9.32,6.94,14.92,9.07c4.34,1.66,9.08,2.38,13.71,2.64c9.79,0.55,19.41-1.92,28.32-5.81
				c8.37-3.65,16.31-9.4,22.03-16.54c1.75-2.18,3.45-4.41,4.88-6.82c1.43-2.42,2.54-4.99,3.59-7.59c2-5,2.92-10.55,2.97-15.93
				c0.1-11-3.69-21.93-9.43-31.21c-6.08-9.82-14.23-18.07-23.57-24.79c-8.29-5.97-17.94-10.34-27.96-12.38
				c-21.48-4.38-44.41,0.19-61.86,13.67c-4.27,3.3-8.14,6.94-11.48,11.18c-2.06,2.62-4.03,5.28-5.71,8.16
				c-1.63,2.79-2.93,5.71-4.16,8.68c-3.82,9.19-5.32,19.41-5.09,29.33c0.2,8.25,1.51,16.56,3.67,24.52
				c1.47,5.39,3.21,10.91,5.85,15.85c2.77,5.18,6.72,9.9,11.07,13.82c8.02,7.22,17.41,12.25,27.41,16.15
				c10.66,4.15,22.07,6.61,33.54,6.58c8.4-0.02,16.71-1.41,25.1-1.66c4.8-0.14,9.59,0.09,14.35,0.71c-0.83-0.11-1.67-0.22-2.5-0.34
				c7.25,0.98,14.27,2.86,21.15,5.31c2.42,0.86,4.82,1.8,7.19,2.79c-0.75-0.32-1.5-0.63-2.24-0.95c8.87,3.75,17.36,8.45,25.01,14.34
				c-0.63-0.49-1.27-0.98-1.9-1.47c5.3,4.11,10.14,8.78,14.27,14.07c-0.49-0.63-0.98-1.27-1.47-1.9c3.42,4.43,6.29,9.24,8.49,14.38
				c-0.32-0.75-0.63-1.5-0.95-2.24c2.37,5.63,3.89,11.58,4.71,17.64c-0.11-0.83-0.22-1.67-0.34-2.5c0.75,5.69,0.83,11.45,0.09,17.14
				c0.11-0.83,0.22-1.67,0.34-2.5c-0.64,4.67-1.83,9.24-3.64,13.6c0.32-0.75,0.63-1.5,0.95-2.24c-1.69,3.98-3.86,7.7-6.48,11.13
				c0.49-0.63,0.98-1.27,1.47-1.9c-2.73,3.51-5.88,6.65-9.4,9.37c0.63-0.49,1.27-0.98,1.9-1.47c-3.85,2.95-8.06,5.36-12.52,7.25
				c0.75-0.32,1.5-0.63,2.24-0.95c-5.11,2.13-10.47,3.56-15.95,4.3c0.83-0.11,1.67-0.22,2.5-0.34c-5.54,0.72-11.14,0.73-16.69,0.01
				c0.83,0.11,1.67,0.22,2.5,0.34c-5.27-0.72-10.35-2.12-15.24-4.18c0.75,0.32,1.5,0.63,2.24,0.95c-5-2.12-9.73-4.83-14.03-8.15
				c0.63,0.49,1.27,0.98,1.9,1.47c-3.49-2.72-6.65-5.82-9.37-9.31c0.49,0.63,0.98,1.27,1.47,1.9c-2.52-3.28-4.61-6.85-6.24-10.66
				c0.32,0.75,0.63,1.5,0.95,2.24c-1.92-4.58-3.15-9.41-3.81-14.32c0.11,0.83,0.22,1.67,0.34,2.5c-0.64-4.94-0.69-9.93-0.05-14.87
				c-0.11,0.83-0.22,1.67-0.34,2.5c0.54-3.95,1.52-7.82,3.06-11.51c-0.32,0.75-0.63,1.5-0.95,2.24c1.22-2.84,2.75-5.52,4.63-7.97
				c-0.49,0.63-0.98,1.27-1.47,1.9c1.68-2.14,3.59-4.06,5.73-5.74c-0.63,0.49-1.27,0.98-1.9,1.47c2.3-1.76,4.79-3.2,7.46-4.33
				c-0.75,0.32-1.5,0.63-2.24,0.95c2.9-1.18,5.91-1.97,9.01-2.4c-0.83,0.11-1.67,0.22-2.5,0.34c3.82-0.5,7.67-0.47,11.49,0.04
				c-0.83-0.11-1.67-0.22-2.5-0.34c3.04,0.42,5.87,1.19,8.71,2.37c-0.75-0.32-1.5-0.63-2.24-0.95c3.44,1.46,6.66,3.36,9.62,5.64
				c-0.63-0.49-1.27-0.98-1.9-1.47c2.66,2.09,5.07,4.46,7.14,7.14c-0.49-0.63-0.98-1.27-1.47-1.9c1.62,2.14,2.99,4.44,4.04,6.92
				c-0.32-0.75-0.63-1.5-0.95-2.24c0.81,2,1.39,4.07,1.7,6.21c-0.11-0.83-0.22-1.67-0.34-2.5c0.26,2.06,0.26,4.11,0,6.17
				c0.11-0.83,0.22-1.67,0.34-2.5c-0.37,2.72-1.11,5.36-2.17,7.89c0.32-0.75,0.63-1.5,0.95-2.24c-0.85,1.97-1.89,3.84-3.18,5.55
				c0.49-0.63,0.98-1.27,1.47-1.9c-1,1.29-2.12,2.46-3.4,3.47c0.63-0.49,1.27-0.98,1.9-1.47c-1.06,0.81-2.2,1.48-3.42,2.01
				c0.75-0.32,1.5-0.63,2.24-0.95c-1.2,0.49-2.43,0.81-3.71,0.99c0.83-0.11,1.67-0.22,2.5-0.34c-1.34,0.16-2.67,0.16-4.02,0
				c0.83,0.11,1.67,0.22,2.5,0.34c-1.58-0.22-3.1-0.63-4.58-1.23c0.75,0.32,1.5,0.63,2.24,0.95c-1.63-0.69-3.15-1.58-4.56-2.65
				c0.63,0.49,1.27,0.98,1.9,1.47c-1.57-1.22-2.95-2.61-4.17-4.17c0.49,0.63,0.98,1.27,1.47,1.9c-1.27-1.68-2.31-3.49-3.13-5.42
				c0.32,0.75,0.63,1.5,0.95,2.24c-0.34-0.84-0.64-1.69-0.91-2.56c-0.7-2.3-2.22-4.39-4.32-5.62c-2.01-1.18-4.98-1.68-7.24-0.95
				c-4.74,1.53-8.1,6.52-6.56,11.56c2.21,7.26,6.47,13.25,12.53,17.76c4.7,3.51,11.08,5.66,16.98,5.25
				c6.64-0.46,12.94-3.26,17.33-8.36c3.78-4.4,6.48-9.6,7.9-15.24c1.47-5.89,1.59-12.1-0.12-17.96
				c-1.86-6.37-5.51-12.11-10.08-16.89c-4.13-4.32-9.23-8.03-14.66-10.55c-3.43-1.59-6.91-2.99-10.64-3.65
				c-11.36-2-23.31-0.88-33.42,5.05c-10.48,6.15-17.62,16.83-20.34,28.57c-4.95,21.34,1.41,45.33,17.81,60.18
				c12.03,10.89,27.47,17.25,43.63,18.22c23.38,1.4,47.13-9.18,60.22-28.84c7.04-10.57,10.18-23.59,9.89-36.21
				c-0.18-7.73-1.43-15.63-3.86-22.99c-6.16-18.63-19.58-33.28-35.89-43.74c-11.16-7.15-23.74-12.51-36.52-16
				c-7-1.91-14.26-3.04-21.5-3.41c-9.49-0.49-18.83,1.03-28.28,1.48c-4.77,0.23-9.54,0.09-14.28-0.53c0.83,0.11,1.67,0.22,2.5,0.34
				c-8.05-1.09-15.9-3.46-23.38-6.58c0.75,0.32,1.5,0.63,2.24,0.95c-6.19-2.62-12.13-5.85-17.47-9.95c0.63,0.49,1.27,0.98,1.9,1.47
				c-3.51-2.72-6.73-5.81-9.45-9.32c0.49,0.63,0.98,1.27,1.47,1.9c-1.97-2.56-3.63-5.32-4.89-8.29c0.32,0.75,0.63,1.5,0.95,2.24
				c-3.04-7.45-5.04-15.45-6.13-23.41c0.11,0.83,0.22,1.67,0.34,2.5c-0.91-6.86-1.05-13.81-0.15-20.68
				c-0.11,0.83-0.22,1.67-0.34,2.5c0.73-5.32,2.09-10.52,4.16-15.48c-0.32,0.75-0.63,1.5-0.95,2.24c1.88-4.42,4.3-8.56,7.21-12.37
				c-0.49,0.63-0.98,1.27-1.47,1.9c3.13-4.03,6.74-7.64,10.77-10.77c-0.63,0.49-1.27,0.98-1.9,1.47c4.26-3.26,8.9-5.95,13.83-8.06
				c-0.75,0.32-1.5,0.63-2.24,0.95c5.48-2.3,11.23-3.86,17.11-4.67c-0.83,0.11-1.67,0.22-2.5,0.34c6.12-0.81,12.32-0.81,18.44,0.01
				c-0.83-0.11-1.67-0.22-2.5-0.34c5.63,0.79,11.14,2.27,16.39,4.45c-0.75-0.32-1.5-0.63-2.24-0.95c5.63,2.38,10.88,5.56,15.72,9.28
				c-0.63-0.49-1.27-0.98-1.9-1.47c5.22,4.06,9.94,8.73,13.99,13.95c-0.49-0.63-0.98-1.27-1.47-1.9c3.35,4.36,6.21,9.06,8.38,14.12
				c-0.32-0.75-0.63-1.5-0.95-2.24c1.68,3.99,2.9,8.14,3.5,12.43c-0.11-0.83-0.22-1.67-0.34-2.5c0.46,3.52,0.49,7.05,0.03,10.57
				c0.11-0.83,0.22-1.67,0.34-2.5c-0.45,3.19-1.3,6.28-2.53,9.25c0.32-0.75,0.63-1.5,0.95-2.24c-1.4,3.29-3.23,6.36-5.42,9.19
				c0.49-0.63,0.98-1.27,1.47-1.9c-2.5,3.19-5.4,6.02-8.59,8.51c0.63-0.49,1.27-0.98,1.9-1.47c-3.85,2.97-8.06,5.41-12.53,7.31
				c0.75-0.32,1.5-0.63,2.24-0.95c-4.51,1.89-9.24,3.23-14.09,3.9c0.83-0.11,1.67-0.22,2.5-0.34c-4.04,0.53-8.13,0.59-12.17,0.06
				c0.83,0.11,1.67,0.22,2.5,0.34c-3.09-0.44-6.11-1.22-9-2.42c0.75,0.32,1.5,0.63,2.24,0.95c-2.77-1.18-5.32-2.75-7.7-4.58
				c0.63,0.49,1.27,0.98,1.9,1.47c-2.88-2.25-5.47-4.85-7.71-7.74c0.49,0.63,0.98,1.27,1.47,1.9c-1.82-2.4-3.38-4.98-4.56-7.76
				c0.32,0.75,0.63,1.5,0.95,2.24c-0.82-2.01-1.43-4.07-1.75-6.22c0.11,0.83,0.22,1.67,0.34,2.5c-0.23-1.75-0.26-3.48-0.05-5.23
				c-0.11,0.83-0.22,1.67-0.34,2.5c0.23-1.61,0.65-3.16,1.27-4.67c-0.32,0.75-0.63,1.5-0.95,2.24c0.74-1.7,1.69-3.27,2.82-4.73
				c-0.49,0.63-0.98,1.27-1.47,1.9c1.29-1.63,2.75-3.07,4.39-4.35c-0.63,0.49-1.27,0.98-1.9,1.47c1.6-1.22,3.32-2.23,5.16-3.04
				c-0.75,0.32-1.5,0.63-2.24,0.95c1.9-0.8,3.85-1.35,5.89-1.63c-0.83,0.11-1.67,0.22-2.5,0.34c1.73-0.2,3.44-0.21,5.17,0
				c-0.83-0.11-1.67-0.22-2.5-0.34c1.89,0.26,3.71,0.76,5.47,1.49c-0.75-0.32-1.5-0.63-2.24-0.95c1.92,0.83,3.71,1.9,5.37,3.17
				c-0.63-0.49-1.27-0.98-1.9-1.47c1.08,0.85,2.1,1.77,3.03,2.78c3.36,3.61,9.94,3.65,13.29,0
				C568.37,500.6,568.4,495.02,564.82,491.17L564.82,491.17z"/>
		</g>
	</g>
	<g>
		<g>
			<path class="st6" d="M490.16,651.16c-7.79-8.36-19.69-12.24-30.84-9.34c-6.03,1.57-11.9,5.14-16.03,9.82
				c-1.94,2.2-3.75,4.61-5,7.28c-1.66,3.55-2.53,6.82-2.85,10.74c-0.5,6.1,1.49,12.33,4.27,17.68c2.61,5.02,6.39,9.67,10.64,13.41
				c4.51,3.97,9.32,6.94,14.92,9.07c4.34,1.66,9.08,2.38,13.71,2.64c9.79,0.55,19.41-1.92,28.32-5.81
				c8.37-3.65,16.31-9.4,22.03-16.54c1.75-2.18,3.45-4.41,4.88-6.82c1.43-2.42,2.54-4.99,3.59-7.59c2-5,2.92-10.55,2.97-15.93
				c0.1-11-3.69-21.93-9.43-31.21c-6.08-9.82-14.23-18.07-23.57-24.79c-8.29-5.97-17.94-10.34-27.96-12.38
				c-21.48-4.38-44.41,0.19-61.86,13.67c-4.27,3.3-8.14,6.94-11.48,11.18c-2.06,2.62-4.03,5.28-5.71,8.16
				c-1.63,2.79-2.93,5.71-4.16,8.68c-3.82,9.19-5.32,19.41-5.09,29.33c0.2,8.25,1.51,16.56,3.67,24.52
				c1.47,5.39,3.21,10.91,5.85,15.85c2.77,5.18,6.72,9.9,11.07,13.82c8.02,7.22,17.41,12.25,27.41,16.15
				c10.66,4.15,22.07,6.61,33.54,6.58c8.4-0.02,16.71-1.41,25.1-1.66c4.8-0.14,9.59,0.09,14.35,0.71c-0.83-0.11-1.67-0.22-2.5-0.34
				c7.25,0.98,14.27,2.86,21.15,5.31c2.42,0.86,4.82,1.8,7.19,2.79c-0.75-0.32-1.5-0.63-2.24-0.95c8.87,3.75,17.36,8.45,25.01,14.34
				c-0.63-0.49-1.27-0.98-1.9-1.47c5.3,4.11,10.14,8.78,14.27,14.07c-0.49-0.63-0.98-1.27-1.47-1.9c3.42,4.43,6.29,9.24,8.49,14.38
				c-0.32-0.75-0.63-1.5-0.95-2.24c2.37,5.63,3.89,11.58,4.71,17.64c-0.11-0.83-0.22-1.67-0.34-2.5c0.75,5.69,0.83,11.45,0.09,17.14
				c0.11-0.83,0.22-1.67,0.34-2.5c-0.64,4.67-1.83,9.24-3.64,13.6c0.32-0.75,0.63-1.5,0.95-2.24c-1.69,3.98-3.86,7.7-6.48,11.13
				c0.49-0.63,0.98-1.27,1.47-1.9c-2.73,3.51-5.88,6.65-9.4,9.37c0.63-0.49,1.27-0.98,1.9-1.47c-3.85,2.95-8.06,5.36-12.52,7.25
				c0.75-0.32,1.5-0.63,2.24-0.95c-5.11,2.13-10.47,3.56-15.95,4.3c0.83-0.11,1.67-0.22,2.5-0.34c-5.54,0.72-11.14,0.73-16.69,0.01
				c0.83,0.11,1.67,0.22,2.5,0.34c-5.27-0.72-10.35-2.12-15.24-4.18c0.75,0.32,1.5,0.63,2.24,0.95c-5-2.12-9.73-4.83-14.03-8.15
				c0.63,0.49,1.27,0.98,1.9,1.47c-3.49-2.72-6.65-5.82-9.37-9.31c0.49,0.63,0.98,1.27,1.47,1.9c-2.52-3.28-4.61-6.85-6.24-10.66
				c0.32,0.75,0.63,1.5,0.95,2.24c-1.92-4.58-3.15-9.41-3.81-14.32c0.11,0.83,0.22,1.67,0.34,2.5c-0.64-4.94-0.69-9.93-0.05-14.87
				c-0.11,0.83-0.22,1.67-0.34,2.5c0.54-3.95,1.52-7.82,3.06-11.51c-0.32,0.75-0.63,1.5-0.95,2.24c1.22-2.84,2.75-5.52,4.63-7.97
				c-0.49,0.63-0.98,1.27-1.47,1.9c1.68-2.14,3.59-4.06,5.73-5.74c-0.63,0.49-1.27,0.98-1.9,1.47c2.3-1.76,4.79-3.2,7.46-4.33
				c-0.75,0.32-1.5,0.63-2.24,0.95c2.9-1.18,5.91-1.97,9.01-2.4c-0.83,0.11-1.67,0.22-2.5,0.34c3.82-0.5,7.67-0.47,11.49,0.04
				c-0.83-0.11-1.67-0.22-2.5-0.34c3.04,0.42,5.87,1.19,8.71,2.37c-0.75-0.32-1.5-0.63-2.24-0.95c3.44,1.46,6.66,3.36,9.62,5.64
				c-0.63-0.49-1.27-0.98-1.9-1.47c2.66,2.09,5.07,4.46,7.14,7.14c-0.49-0.63-0.98-1.27-1.47-1.9c1.62,2.14,2.99,4.44,4.04,6.92
				c-0.32-0.75-0.63-1.5-0.95-2.24c0.81,2,1.39,4.07,1.7,6.21c-0.11-0.83-0.22-1.67-0.34-2.5c0.26,2.06,0.26,4.11,0,6.17
				c0.11-0.83,0.22-1.67,0.34-2.5c-0.37,2.72-1.11,5.36-2.17,7.89c0.32-0.75,0.63-1.5,0.95-2.24c-0.85,1.97-1.89,3.84-3.18,5.55
				c0.49-0.63,0.98-1.27,1.47-1.9c-1,1.29-2.12,2.46-3.4,3.47c0.63-0.49,1.27-0.98,1.9-1.47c-1.06,0.81-2.2,1.48-3.42,2.01
				c0.75-0.32,1.5-0.63,2.24-0.95c-1.2,0.49-2.43,0.81-3.71,0.99c0.83-0.11,1.67-0.22,2.5-0.34c-1.34,0.16-2.67,0.16-4.02,0
				c0.83,0.11,1.67,0.22,2.5,0.34c-1.58-0.22-3.1-0.63-4.58-1.23c0.75,0.32,1.5,0.63,2.24,0.95c-1.63-0.69-3.15-1.58-4.56-2.65
				c0.63,0.49,1.27,0.98,1.9,1.47c-1.57-1.22-2.95-2.61-4.17-4.17c0.49,0.63,0.98,1.27,1.47,1.9c-1.27-1.68-2.31-3.49-3.13-5.42
				c0.32,0.75,0.63,1.5,0.95,2.24c-0.34-0.84-0.64-1.69-0.91-2.56c-0.7-2.3-2.22-4.39-4.32-5.62c-2.01-1.18-4.98-1.68-7.24-0.95
				c-4.74,1.53-8.1,6.52-6.56,11.56c2.21,7.26,6.47,13.25,12.53,17.76c4.7,3.51,11.08,5.66,16.98,5.25
				c6.64-0.46,12.94-3.26,17.33-8.36c3.78-4.4,6.48-9.6,7.9-15.24c1.47-5.89,1.59-12.1-0.12-17.96
				c-1.86-6.37-5.51-12.11-10.08-16.89c-4.13-4.32-9.23-8.03-14.66-10.55c-3.43-1.59-6.91-2.99-10.64-3.65
				c-11.36-2-23.31-0.88-33.42,5.05c-10.48,6.15-17.62,16.83-20.34,28.57c-4.95,21.34,1.41,45.33,17.81,60.18
				c12.03,10.89,27.47,17.25,43.63,18.22c23.38,1.4,47.13-9.18,60.22-28.84c7.04-10.57,10.18-23.59,9.89-36.21
				c-0.18-7.73-1.43-15.63-3.86-22.99c-6.16-18.63-19.58-33.28-35.89-43.74c-11.16-7.15-23.74-12.51-36.52-16
				c-7-1.91-14.26-3.04-21.5-3.41c-9.49-0.49-18.83,1.03-28.28,1.48c-4.77,0.23-9.54,0.09-14.28-0.53c0.83,0.11,1.67,0.22,2.5,0.34
				c-8.05-1.09-15.9-3.46-23.38-6.58c0.75,0.32,1.5,0.63,2.24,0.95c-6.19-2.62-12.13-5.85-17.47-9.95c0.63,0.49,1.27,0.98,1.9,1.47
				c-3.51-2.72-6.73-5.81-9.45-9.32c0.49,0.63,0.98,1.27,1.47,1.9c-1.97-2.56-3.63-5.32-4.89-8.29c0.32,0.75,0.63,1.5,0.95,2.24
				c-3.04-7.45-5.04-15.45-6.13-23.41c0.11,0.83,0.22,1.67,0.34,2.5c-0.91-6.86-1.05-13.81-0.15-20.68
				c-0.11,0.83-0.22,1.67-0.34,2.5c0.73-5.32,2.09-10.52,4.16-15.48c-0.32,0.75-0.63,1.5-0.95,2.24c1.88-4.42,4.3-8.56,7.21-12.37
				c-0.49,0.63-0.98,1.27-1.47,1.9c3.13-4.03,6.74-7.64,10.77-10.77c-0.63,0.49-1.27,0.98-1.9,1.47c4.26-3.26,8.9-5.95,13.83-8.06
				c-0.75,0.32-1.5,0.63-2.24,0.95c5.48-2.3,11.23-3.86,17.11-4.67c-0.83,0.11-1.67,0.22-2.5,0.34c6.12-0.81,12.32-0.81,18.44,0.01
				c-0.83-0.11-1.67-0.22-2.5-0.34c5.63,0.79,11.14,2.27,16.39,4.45c-0.75-0.32-1.5-0.63-2.24-0.95c5.63,2.38,10.88,5.56,15.72,9.28
				c-0.63-0.49-1.27-0.98-1.9-1.47c5.22,4.06,9.94,8.73,13.99,13.95c-0.49-0.63-0.98-1.27-1.47-1.9c3.35,4.36,6.21,9.06,8.38,14.12
				c-0.32-0.75-0.63-1.5-0.95-2.24c1.68,3.99,2.9,8.14,3.5,12.43c-0.11-0.83-0.22-1.67-0.34-2.5c0.46,3.52,0.49,7.05,0.03,10.57
				c0.11-0.83,0.22-1.67,0.34-2.5c-0.45,3.19-1.3,6.28-2.53,9.25c0.32-0.75,0.63-1.5,0.95-2.24c-1.4,3.29-3.23,6.36-5.42,9.19
				c0.49-0.63,0.98-1.27,1.47-1.9c-2.5,3.19-5.4,6.02-8.59,8.51c0.63-0.49,1.27-0.98,1.9-1.47c-3.85,2.97-8.06,5.41-12.53,7.31
				c0.75-0.32,1.5-0.63,2.24-0.95c-4.51,1.89-9.24,3.23-14.09,3.9c0.83-0.11,1.67-0.22,2.5-0.34c-4.04,0.53-8.13,0.59-12.17,0.06
				c0.83,0.11,1.67,0.22,2.5,0.34c-3.09-0.44-6.11-1.22-9-2.42c0.75,0.32,1.5,0.63,2.24,0.95c-2.77-1.18-5.32-2.75-7.7-4.58
				c0.63,0.49,1.27,0.98,1.9,1.47c-2.88-2.25-5.47-4.85-7.71-7.74c0.49,0.63,0.98,1.27,1.47,1.9c-1.82-2.4-3.38-4.98-4.56-7.76
				c0.32,0.75,0.63,1.5,0.95,2.24c-0.82-2.01-1.43-4.07-1.75-6.22c0.11,0.83,0.22,1.67,0.34,2.5c-0.23-1.75-0.26-3.48-0.05-5.23
				c-0.11,0.83-0.22,1.67-0.34,2.5c0.23-1.61,0.65-3.16,1.27-4.67c-0.32,0.75-0.63,1.5-0.95,2.24c0.74-1.7,1.69-3.27,2.82-4.73
				c-0.49,0.63-0.98,1.27-1.47,1.9c1.29-1.63,2.75-3.07,4.39-4.35c-0.63,0.49-1.27,0.98-1.9,1.47c1.6-1.22,3.32-2.23,5.16-3.04
				c-0.75,0.32-1.5,0.63-2.24,0.95c1.9-0.8,3.85-1.35,5.89-1.63c-0.83,0.11-1.67,0.22-2.5,0.34c1.73-0.2,3.44-0.21,5.17,0
				c-0.83-0.11-1.67-0.22-2.5-0.34c1.89,0.26,3.71,0.76,5.47,1.49c-0.75-0.32-1.5-0.63-2.24-0.95c1.92,0.83,3.71,1.9,5.37,3.17
				c-0.63-0.49-1.27-0.98-1.9-1.47c1.08,0.85,2.1,1.77,3.03,2.78c3.36,3.61,9.94,3.65,13.29,0
				C493.7,660.59,493.74,655,490.16,651.16L490.16,651.16z"/>
		</g>
	</g>
	<g>
		<g>
			<path class="st6" d="M714.1,493.02c0.05,1.44-0.02,2.88-0.21,4.3c0.11-0.83,0.22-1.67,0.34-2.5c-0.28,2.06-0.8,4.05-1.58,5.98
				c0.32-0.75,0.63-1.5,0.95-2.24c-0.72,1.7-1.63,3.28-2.74,4.75c0.49-0.63,0.98-1.27,1.47-1.9c-1.08,1.38-2.3,2.6-3.68,3.68
				c0.63-0.49,1.27-0.98,1.9-1.47c-1.49,1.13-3.09,2.06-4.8,2.8c0.75-0.32,1.5-0.63,2.24-0.95c-2.01,0.84-4.09,1.4-6.24,1.7
				c0.83-0.11,1.67-0.22,2.5-0.34c-2.2,0.28-4.4,0.28-6.59,0c0.83,0.11,1.67,0.22,2.5,0.34c-1.86-0.27-3.67-0.75-5.4-1.47
				c0.75,0.32,1.5,0.63,2.24,0.95c-1.37-0.6-2.64-1.35-3.83-2.25c0.63,0.49,1.27,0.98,1.9,1.47c-1.32-1.03-2.48-2.22-3.51-3.53
				c0.49,0.63,0.98,1.27,1.47,1.9c-1.28-1.69-2.32-3.53-3.16-5.47c0.32,0.75,0.63,1.5,0.95,2.24c-1.22-2.92-1.99-5.99-2.41-9.12
				c0.11,0.83,0.22,1.67,0.34,2.5c-0.47-3.67-0.46-7.39,0.01-11.06c-0.11,0.83-0.22,1.67-0.34,2.5c0.41-3.03,1.15-5.98,2.32-8.81
				c-0.32,0.75-0.63,1.5-0.95,2.24c1.21-2.85,2.79-5.5,4.67-7.96c-0.49,0.63-0.98,1.27-1.47,1.9c2.36-3.04,5.12-5.73,8.15-8.1
				c-0.63,0.49-1.27,0.98-1.9,1.47c3.78-2.92,7.93-5.3,12.32-7.17c-0.75,0.32-1.5,0.63-2.24,0.95c4.57-1.91,9.36-3.25,14.27-3.93
				c-0.83,0.11-1.67,0.22-2.5,0.34c4.31-0.57,8.67-0.63,12.99-0.06c-0.83-0.11-1.67-0.22-2.5-0.34c3.51,0.48,6.93,1.38,10.2,2.73
				c-0.75-0.32-1.5-0.63-2.24-0.95c2.98,1.26,5.77,2.89,8.34,4.86c-0.63-0.49-1.27-0.98-1.9-1.47c2.64,2.06,4.98,4.45,7.03,7.1
				c-0.49-0.63-0.98-1.27-1.47-1.9c2.49,3.26,4.51,6.84,6.11,10.62c-0.32-0.75-0.63-1.5-0.95-2.24c2.17,5.18,3.56,10.64,4.33,16.2
				c-0.11-0.83-0.22-1.67-0.34-2.5c0.92,6.93,0.89,13.97-0.04,20.9c0.11-0.83,0.22-1.67,0.34-2.5c-0.84,6.08-2.37,12.05-4.74,17.71
				c0.32-0.75,0.63-1.5,0.95-2.24c-2.19,5.17-5.05,10.01-8.46,14.47c0.49-0.63,0.98-1.27,1.47-1.9c-3.59,4.63-7.74,8.78-12.36,12.37
				c0.63-0.49,1.27-0.98,1.9-1.47c-4.55,3.5-9.51,6.42-14.79,8.68c0.75-0.32,1.5-0.63,2.24-0.95c-5.21,2.19-10.66,3.71-16.26,4.47
				c0.83-0.11,1.67-0.22,2.5-0.34c-5.24,0.68-10.53,0.69-15.77-0.01c0.83,0.11,1.67,0.22,2.5,0.34c-4.89-0.68-9.65-1.98-14.21-3.89
				c0.75,0.32,1.5,0.63,2.24,0.95c-4.82-2.05-9.32-4.74-13.48-7.94c0.63,0.49,1.27,0.98,1.9,1.47c-5.26-4.08-9.89-8.89-13.96-14.15
				c0.49,0.63,0.98,1.27,1.47,1.9c-4.53-5.89-8.37-12.31-11.5-19.05c-0.54-1.16-1.06-2.33-1.56-3.51c0.32,0.75,0.63,1.5,0.95,2.24
				c-2.81-6.7-4.72-13.72-5.7-20.92c0.11,0.83,0.22,1.67,0.34,2.5c-1.02-7.77-0.95-15.63,0.07-23.4c-0.11,0.83-0.22,1.67-0.34,2.5
				c1.23-9.09,3.7-17.99,7.25-26.45c-0.32,0.75-0.63,1.5-0.95,2.24c1.23-2.89,2.57-5.75,4.1-8.49c2.4-4.29,1.17-10.46-3.37-12.86
				c-4.43-2.34-10.29-1.21-12.86,3.37c-7.24,12.94-11.4,27.58-12.95,42.26c-1.24,11.79-0.21,24.01,3.12,35.39
				c1.81,6.2,4.38,12.25,7.32,18.01c6.07,11.92,14.46,23.24,25.04,31.52c7.61,5.96,16.01,10.64,25.43,13.11
				c10.64,2.79,21.84,2.78,32.55,0.41c20.82-4.6,39.49-19.07,49.62-37.76c9.27-17.1,11.57-37.69,7.55-56.62
				c-2.01-9.49-6.07-18.34-12.06-25.95c-5.93-7.54-14.32-13.01-23.51-15.69c-19.71-5.75-42.03,0.9-57.17,14.21
				c-7.07,6.21-12.68,14.7-14.69,23.97c-2.28,10.51-1.36,21.46,3.12,31.25c2.28,4.97,5.98,9.09,10.44,12.2
				c4.62,3.22,10.63,4.63,16.19,4.71c5.91,0.09,12.01-1.47,17.12-4.44c6.36-3.7,10.76-9.48,13.33-16.29c1.42-3.78,2-8.07,1.86-12.11
				c-0.09-2.46-0.99-4.88-2.75-6.64c-1.63-1.63-4.3-2.86-6.64-2.75C718.56,483.84,713.92,487.76,714.1,493.02L714.1,493.02z"/>
		</g>
	</g>
</g>
</svg>
